<svg width="60" height="60" viewBox="0 0 60 60" fill="none" xmlns="http://www.w3.org/2000/svg">
<rect width="60" height="60" rx="30" fill="#E8840C"/>
<path d="M29.1355 41.32C27.5568 41.32 26.0102 41.096 24.4955 40.648C23.0022 40.1787 21.7435 39.5387 20.7195 38.728L22.5115 35.496C23.3222 36.1573 24.3035 36.6907 25.4555 37.096C26.6075 37.5013 27.8128 37.704 29.0715 37.704C30.5648 37.704 31.7275 37.4053 32.5595 36.808C33.3915 36.1893 33.8075 35.3573 33.8075 34.312C33.8075 33.288 33.4235 32.4773 32.6555 31.88C31.8875 31.2827 30.6502 30.984 28.9435 30.984H26.8955V28.136L33.2955 20.52L33.8395 22.088H21.8075V18.6H37.0715V21.384L30.6715 29L28.4955 27.72H29.7435C32.4955 27.72 34.5542 28.3387 35.9195 29.576C37.3062 30.792 37.9995 32.36 37.9995 34.28C37.9995 35.5387 37.6795 36.7013 37.0395 37.768C36.3995 38.8347 35.4182 39.6987 34.0955 40.36C32.7942 41 31.1408 41.32 29.1355 41.32Z" fill="white"/>
</svg>
