<svg width="60" height="60" viewBox="0 0 60 60" fill="none" xmlns="http://www.w3.org/2000/svg">
<rect width="60" height="60" rx="30" fill="#E8840C"/>
<path d="M21.8075 41V38.216L30.7035 29.768C31.4502 29.064 32.0048 28.4453 32.3675 27.912C32.7302 27.3787 32.9648 26.888 33.0715 26.44C33.1995 25.9707 33.2635 25.5333 33.2635 25.128C33.2635 24.104 32.9115 23.3147 32.2075 22.76C31.5035 22.184 30.4688 21.896 29.1035 21.896C28.0155 21.896 27.0235 22.088 26.1275 22.472C25.2528 22.856 24.4955 23.4427 23.8555 24.232L20.9435 21.992C21.8182 20.8187 22.9915 19.912 24.4635 19.272C25.9568 18.6107 27.6208 18.28 29.4555 18.28C31.0768 18.28 32.4848 18.5467 33.6795 19.08C34.8955 19.592 35.8235 20.328 36.4635 21.288C37.1248 22.248 37.4555 23.3893 37.4555 24.712C37.4555 25.4373 37.3595 26.1627 37.1675 26.888C36.9755 27.592 36.6128 28.3387 36.0795 29.128C35.5462 29.9173 34.7675 30.8027 33.7435 31.784L26.0955 39.048L25.2315 37.48H38.3195V41H21.8075Z" fill="white"/>
</svg>
